<?xml version="1.0" encoding="UTF-8"?>
<svg fill="#000000" viewBox="0 0 1024 1024" id="Flat" xmlns="http://www.w3.org/2000/svg">
<path d="M0 0 C1.2741051 -0.00367669 2.5482102 -0.00735338 3.86092454 -0.01114148 C7.3865926 -0.021115 10.91224363 -0.02487076 14.43792379 -0.02753079 C18.24531544 -0.03144786 22.05269379 -0.04102537 25.8600769 -0.04974365 C35.05125379 -0.06947144 44.24243172 -0.07957087 53.43362448 -0.08847144 C57.76997271 -0.09286152 62.10631973 -0.09822656 66.44266701 -0.10346031 C80.87256587 -0.12047104 95.30246399 -0.134962 109.73237133 -0.14220905 C113.4738687 -0.14411872 117.21536606 -0.14603908 120.9568634 -0.147995 C122.35163588 -0.14872061 122.35163588 -0.14872061 123.77458558 -0.14946087 C138.81474106 -0.15774917 153.85481669 -0.18306645 168.89493736 -0.21557567 C184.36286686 -0.24873481 199.83075593 -0.2666659 215.29872113 -0.26985329 C223.97252532 -0.27201052 232.64621317 -0.28064271 241.31998253 -0.30631447 C248.71203565 -0.32814305 256.10394418 -0.33601279 263.49602588 -0.32634769 C267.25958555 -0.32183748 271.02284768 -0.32349454 274.78636551 -0.34310913 C295.60474771 -0.44552846 315.16992705 0.42818717 334.37214661 9.14717102 C335.35054504 9.57642883 336.32894348 10.00568665 337.33699036 10.44795227 C365.24047071 23.46468752 384.89280248 47.5388725 395.37214661 76.14717102 C399.16662382 88.04304963 400.52125573 99.00073691 400.49240112 111.44110107 C400.49283753 112.80007719 400.49371372 114.15905321 400.49499029 115.5180288 C400.49722159 119.24194038 400.49323266 122.96582309 400.48821223 126.689731 C400.4838883 130.70941374 400.48535553 134.72909489 400.4861145 138.7487793 C400.4866385 145.70970482 400.48350461 152.67062095 400.47787666 159.63154411 C400.46974494 169.69583414 400.46714473 179.76011964 400.46588867 189.82441259 C400.46370079 206.15359961 400.45704783 222.48278164 400.44758606 238.81196594 C400.43840514 254.67296829 400.43132763 270.53396928 400.42707825 286.39497375 C400.42681552 287.37286924 400.4265528 288.35076473 400.42628212 289.35829341 C400.42497706 294.26417433 400.42371336 299.17005526 400.42247021 304.0759362 C400.4121058 344.76635128 400.39449463 385.45676087 400.37214661 426.14717102 C401.12351898 426.21011353 401.87489136 426.27305603 402.64903259 426.33790588 C404.1306337 426.46633881 404.1306337 426.46633881 405.64216614 426.59736633 C406.62041351 426.68093384 407.59866089 426.76450134 408.60655212 426.8506012 C414.40668815 427.47258151 419.84775389 429.34653747 425.37214661 431.14717102 C426.41113098 431.4849054 427.45011536 431.82263977 428.52058411 432.17060852 C459.86175625 443.30185606 483.94819228 466.06761381 499.37214661 495.14717102 C499.90710754 496.12685852 500.44206848 497.10654602 500.99324036 498.11592102 C515.36808239 526.49223257 516.70444735 563.44423017 507.01667786 593.49482727 C505.64943358 597.46123559 504.07054218 601.31224896 502.37214661 605.14717102 C501.84749817 606.33697571 501.32284973 607.5267804 500.78230286 608.75263977 C494.21082556 622.68417164 485.0510852 634.16355515 474.37214661 645.14717102 C473.83863586 645.70694641 473.30512512 646.2667218 472.75544739 646.84346008 C457.41374876 662.65687807 436.59780803 672.86792161 415.37214661 678.14717102 C414.36409973 678.40466125 413.35605286 678.66215149 412.31745911 678.92744446 C403.47819154 681.0226598 395.06740811 681.69162219 385.99714661 681.64717102 C384.96116333 681.64402893 384.96116333 681.64402893 383.9042511 681.64082336 C351.23555079 681.4383198 321.36072764 670.33209934 297.37214661 648.14717102 C296.85523254 647.67408508 296.33831848 647.20099915 295.80574036 646.71357727 C287.78519922 639.29608434 281.39309816 631.24357264 275.37214661 622.14717102 C274.82042786 621.35310852 274.26870911 620.55904602 273.70027161 619.74092102 C261.36563621 600.9073917 256.19543885 577.38511084 256.13191223 555.19844055 C256.12230106 553.17961381 256.09125645 551.16184951 256.05964661 549.14326477 C256.02273071 539.70202336 257.15382375 531.31148003 259.37214661 522.14717102 C259.56034973 521.36535461 259.74855286 520.58353821 259.94245911 519.7780304 C265.59711458 497.97668294 276.86560252 479.31240017 292.37214661 463.14717102 C293.09015442 462.37760071 293.80816223 461.6080304 294.54792786 460.81513977 C310.41323765 444.27351126 331.55075652 434.16956917 353.43464661 428.27217102 C354.23233459 428.05657532 355.03002258 427.84097961 355.85188293 427.61885071 C356.9930658 427.32736145 356.9930658 427.32736145 358.15730286 427.02998352 C358.82640686 426.85869934 359.49551086 426.68741516 360.18489075 426.51094055 C362.9312136 426.0541908 365.59237226 426.12509862 368.37214661 426.14717102 C368.29027067 386.43476598 368.19805711 346.72239715 368.092095 307.01004875 C368.07957702 302.31527785 368.06714411 297.62050674 368.05476379 292.92573547 C368.0522978 291.99114171 368.04983181 291.05654795 368.04729109 290.09363317 C368.00763208 274.98638857 367.97485448 259.87913656 367.94464679 244.77187044 C367.91346702 229.25556589 367.87483001 213.73929266 367.82935655 198.22302336 C367.80155861 188.65861196 367.77948816 179.09422331 367.7648841 169.52978253 C367.75429326 162.95962248 367.73641995 156.38950664 367.71297957 149.81937999 C367.69969193 146.03608881 367.68946175 142.25285921 367.68793297 138.46954346 C367.67080289 107.35722671 366.53490226 78.79517994 343.37214661 55.14717102 C320.14301048 33.88849619 292.98960039 32.82796248 263.13076782 32.88572168 C259.61877192 32.89030181 256.10679484 32.88323525 252.59480286 32.87776184 C245.73800484 32.86892474 238.88125091 32.87076428 232.02445126 32.87658712 C226.44576599 32.88112617 220.86709296 32.88170688 215.28840637 32.87953949 C214.49076323 32.87923302 213.69312009 32.87892656 212.87130594 32.8786108 C211.25029945 32.87797128 209.62929296 32.87732285 208.00828648 32.87666562 C192.85107337 32.87097898 177.69388457 32.87749397 162.53667545 32.88826635 C149.56515368 32.89720034 136.59366773 32.89564783 123.62214661 32.88642883 C108.51469586 32.87569665 93.40726634 32.87152815 78.29981232 32.87765336 C76.68517049 32.87829038 75.07052867 32.87891912 73.45588684 32.87953949 C72.66170176 32.87984804 71.86751668 32.88015659 71.04926538 32.88047449 C65.4850936 32.88219261 59.92093542 32.87930551 54.35676575 32.87458038 C47.56472878 32.86893866 40.77273797 32.87055655 33.98070621 32.88114187 C30.5233513 32.88635468 27.06607301 32.88853151 23.60871887 32.88184357 C-4.63967429 32.68116902 -4.63967429 32.68116902 -31.62785339 40.14717102 C-32.98330261 40.71951477 -32.98330261 40.71951477 -34.36613464 41.30342102 C-40.90303793 44.31263311 -46.15834835 48.52337096 -51.62785339 53.14717102 C-52.89242371 54.12556946 -52.89242371 54.12556946 -54.18254089 55.12373352 C-69.18044668 67.53414118 -76.27106567 88.00870539 -78.21886826 106.70731926 C-79.19307289 117.98566466 -78.93995656 129.35461248 -78.94452763 140.66678536 C-78.94826351 144.50771719 -78.96343905 148.3486073 -78.97714233 152.18951416 C-78.99928906 158.82503879 -79.01437752 165.46054832 -79.02450943 172.09610176 C-79.03916845 181.68969195 -79.06472491 191.28322948 -79.09284072 200.87678855 C-79.13817835 216.44615007 -79.17484665 232.01551923 -79.20597839 247.58491516 C-79.23621755 262.69853555 -79.27059225 277.81213732 -79.31047058 292.92573547 C-79.31293213 293.85918579 -79.31539368 294.7926361 -79.31792982 295.75437278 C-79.33030546 300.43777055 -79.34276179 305.1211681 -79.35525823 309.80456555 C-79.45863068 348.58540818 -79.54789796 387.36627345 -79.62785339 426.14717102 C-77.96457001 426.1368988 -77.96457001 426.1368988 -76.26768494 426.12641907 C-49.64088105 426.27822779 -22.8066991 444.19345034 -4.62785339 462.14717102 C-3.93949402 462.7633429 -3.25113464 463.37951477 -2.54191589 464.01435852 C14.77505075 479.91769523 25.51099521 503.48866428 30.37214661 526.14717102 C30.55471008 526.94671204 30.73727356 527.74625305 30.92536926 528.57002258 C32.59255691 536.57192943 32.76975881 544.49636949 32.74714661 552.64717102 C32.74693512 553.35171417 32.74672363 554.05625732 32.74650574 554.78215027 C32.71200899 566.32090204 31.65815948 577.05584984 28.37214661 588.14717102 C27.86361145 590.03242493 27.86361145 590.03242493 27.34480286 591.95576477 C21.52243693 611.53631923 10.27796259 628.397848 -3.62785339 643.14717102 C-4.60431824 644.2377179 -4.60431824 644.2377179 -5.60050964 645.35029602 C-20.90968429 661.75087618 -42.22722951 672.24115469 -63.62785339 678.14717102 C-64.73644714 678.46556946 -65.84504089 678.7839679 -66.98722839 679.11201477 C-100.30655607 687.00534895 -135.55622215 679.47968408 -164.64787292 662.37715149 C-192.65056632 644.98164356 -211.99048399 616.63989322 -220.62785339 585.14717102 C-221.13638855 583.38566711 -221.13638855 583.38566711 -221.65519714 581.58857727 C-229.50945532 548.54278133 -222.18314538 512.74327707 -204.62785339 484.14717102 C-194.12699723 467.99579998 -180.85323378 454.51325891 -164.62785339 444.14717102 C-162.98236511 443.08562805 -162.98236511 443.08562805 -161.30363464 442.00263977 C-146.72292805 433.14583425 -128.83878963 426.01433154 -111.62785339 426.14717102 C-111.62899255 425.45882878 -111.63013172 424.77048653 -111.6313054 424.06128544 C-111.6985006 383.22665832 -111.74994386 342.39203764 -111.78104938 301.55736631 C-111.78480131 296.64971974 -111.7886843 291.74207328 -111.79264832 286.83442688 C-111.79343525 285.85743989 -111.79422218 284.8804529 -111.79503296 283.87386025 C-111.808072 268.07331909 -111.83171755 252.27281082 -111.85931178 236.47228914 C-111.8874078 220.24863072 -111.90403852 204.02498948 -111.91011888 187.80130774 C-111.91422662 177.79770243 -111.927181 167.7941901 -111.95160279 157.79061342 C-111.96751183 150.92239877 -111.9722421 144.05423188 -111.96835753 137.18600016 C-111.96644399 133.2287325 -111.96929031 129.27162682 -111.98546982 125.31438828 C-112.00021505 121.68113791 -112.00071256 118.04815637 -111.99055008 114.41489286 C-111.98870935 112.49930275 -112.00151639 110.58371515 -112.01509732 108.6681723 C-111.8657879 79.36145642 -98.95007342 52.67030533 -79.11222839 31.60029602 C-57.7711503 10.52765916 -29.72865083 -0.00461458 0 0 Z M-164.87785339 487.08467102 C-184.50713842 507.27125436 -191.20500136 532.00095727 -190.90910339 559.48701477 C-190.30948102 580.6866638 -181.0505382 600.0044708 -167.62785339 616.14717102 C-166.88535339 617.10107727 -166.14285339 618.05498352 -165.37785339 619.03779602 C-162.41099416 622.58219493 -158.9565085 625.282672 -155.25285339 628.02217102 C-154.55095886 628.54174377 -153.84906433 629.06131653 -153.12590027 629.59663391 C-131.58497986 645.2041416 -106.81487156 651.90020529 -80.25675964 648.02998352 C-55.21412732 643.64765486 -34.4036356 629.88145209 -18.62785339 610.14717102 C-3.31955369 587.83433566 3.1935108 562.00738861 -1.34660339 535.08076477 C-6.36991699 510.80230544 -21.00633367 487.63297346 -41.81925964 473.86592102 C-83.08670068 448.61185418 -129.89800433 453.47245516 -164.87785339 487.08467102 Z M317.71980286 484.58857727 C301.36835747 500.30071802 289.62381417 522.81487813 289.13386536 545.82295227 C288.68343138 572.82045685 294.78326443 594.99402198 312.37214661 616.14717102 C313.11464661 617.10107727 313.85714661 618.05498352 314.62214661 619.03779602 C317.58900584 622.58219493 321.0434915 625.282672 324.74714661 628.02217102 C325.44904114 628.54174377 326.15093567 629.06131653 326.87409973 629.59663391 C348.41502014 645.2041416 373.18512844 651.90020529 399.74324036 648.02998352 C424.78587268 643.64765486 445.5963644 629.88145209 461.37214661 610.14717102 C476.72852435 587.76425881 482.97969231 562.21208217 478.72370911 535.22138977 C473.85635869 510.68761266 458.96269771 488.1509272 438.30964661 474.05732727 C431.58724682 469.8003359 424.78111921 466.0585842 417.37214661 463.14717102 C416.43628723 462.77721008 415.50042786 462.40724915 414.53620911 462.02607727 C380.16488879 449.96518981 343.78959046 460.59208647 317.71980286 484.58857727 Z " fill="#000000" transform="translate(367.6278533935547,171.8528289794922)"/>
</svg>
