<?xml version="1.0" encoding="UTF-8"?>
<svg fill="#000000" viewBox="0 0 1024 1024" id="Flat" xmlns="http://www.w3.org/2000/svg">
<path d="M0 0 C1.2741051 -0.00367669 2.5482102 -0.00735338 3.86092454 -0.01114148 C7.3865926 -0.021115 10.91224363 -0.02487076 14.43792379 -0.02753079 C18.24531544 -0.03144786 22.05269379 -0.04102537 25.8600769 -0.04974365 C35.05125379 -0.06947144 44.24243172 -0.07957087 53.43362448 -0.08847144 C57.76997271 -0.09286152 62.10631973 -0.09822656 66.44266701 -0.10346031 C80.87256587 -0.12047104 95.30246399 -0.134962 109.73237133 -0.14220905 C113.4738687 -0.14411872 117.21536606 -0.14603908 120.9568634 -0.147995 C122.35163588 -0.14872061 122.35163588 -0.14872061 123.77458558 -0.14946087 C138.81474106 -0.15774917 153.85481669 -0.18306645 168.89493736 -0.21557567 C184.36286686 -0.24873481 199.83075593 -0.2666659 215.29872113 -0.26985329 C223.97252532 -0.27201052 232.64621317 -0.28064271 241.31998253 -0.30631447 C248.71203565 -0.32814305 256.10394418 -0.33601279 263.49602588 -0.32634769 C267.25958555 -0.32183748 271.02284768 -0.32349454 274.78636551 -0.34310913 C295.60474771 -0.44552846 315.16992705 0.42818717 334.37214661 9.14717102 C335.35054504 9.57642883 336.32894348 10.00568665 337.33699036 10.44795227 C365.24047071 23.46468752 384.89280248 47.5388725 395.37214661 76.14717102 C398.46655521 85.84829899 400.51223297 95.38635832 400.46980286 105.61201477 C400.46838791 106.29018753 400.46697296 106.96836029 400.46551514 107.66708374 C400.45997406 109.8063268 400.44743314 111.94546027 400.43464661 114.08467102 C400.42962397 115.54625804 400.42506241 117.00784672 400.42097473 118.46943665 C400.41002405 122.02871628 400.39280105 125.58793293 400.37214661 129.14717102 C401.08644836 129.19905579 401.80075012 129.25094055 402.53669739 129.30439758 C410.56836109 129.94952197 417.70990929 131.64972338 425.37214661 134.14717102 C426.41113098 134.4849054 427.45011536 134.82263977 428.52058411 135.17060852 C459.86175625 146.30185606 483.94819228 169.06761381 499.37214661 198.14717102 C499.90710754 199.12685852 500.44206848 200.10654602 500.99324036 201.11592102 C515.36808239 229.49223257 516.70444735 266.44423017 507.01667786 296.49482727 C505.64943358 300.46123559 504.07054218 304.31224896 502.37214661 308.14717102 C501.84749817 309.33697571 501.32284973 310.5267804 500.78230286 311.75263977 C494.21082556 325.68417164 485.0510852 337.16355515 474.37214661 348.14717102 C473.83863586 348.70694641 473.30512512 349.2667218 472.75544739 349.84346008 C457.41374876 365.65687807 436.59780803 375.86792161 415.37214661 381.14717102 C414.36409973 381.40466125 413.35605286 381.66215149 412.31745911 381.92744446 C403.47819154 384.0226598 395.06740811 384.69162219 385.99714661 384.64717102 C385.30649109 384.64507629 384.61583557 384.64298157 383.9042511 384.64082336 C351.23555079 384.4383198 321.36072764 373.33209934 297.37214661 351.14717102 C296.85523254 350.67408508 296.33831848 350.20099915 295.80574036 349.71357727 C287.78519922 342.29608434 281.39309816 334.24357264 275.37214661 325.14717102 C274.82042786 324.35310852 274.26870911 323.55904602 273.70027161 322.74092102 C261.36563621 303.9073917 256.19543885 280.38511084 256.13191223 258.19844055 C256.12230106 256.17961381 256.09125645 254.16184951 256.05964661 252.14326477 C256.02273071 242.70202336 257.15382375 234.31148003 259.37214661 225.14717102 C259.56034973 224.36535461 259.74855286 223.58353821 259.94245911 222.7780304 C265.59711458 200.97668294 276.86560252 182.31240017 292.37214661 166.14717102 C293.09015442 165.37760071 293.80816223 164.6080304 294.54792786 163.81513977 C310.41323765 147.27351126 331.55075652 137.16956917 353.43464661 131.27217102 C354.23233459 131.05657532 355.03002258 130.84097961 355.85188293 130.61885071 C356.61267151 130.42452454 357.37346008 130.23019836 358.15730286 130.02998352 C358.82640686 129.85869934 359.49551086 129.68741516 360.18489075 129.51094055 C362.93397879 129.05373091 365.59077473 129.09109197 368.37214661 129.14717102 C367.10499841 103.57498709 364.82631563 80.30258049 347.37214661 60.14717102 C346.76886536 59.34537415 346.16558411 58.54357727 345.54402161 57.71748352 C343.08966455 54.81286671 340.38200344 52.50242486 337.37214661 50.20967102 C336.80181702 49.77509583 336.23148743 49.34052063 335.64387512 48.89277649 C313.83382709 32.70617268 289.10782798 32.83547141 263.13076782 32.88572168 C259.61877192 32.89030181 256.10679484 32.88323525 252.59480286 32.87776184 C245.73800484 32.86892474 238.88125091 32.87076428 232.02445126 32.87658712 C226.44576599 32.88112617 220.86709296 32.88170688 215.28840637 32.87953949 C214.49076323 32.87923302 213.69312009 32.87892656 212.87130594 32.8786108 C211.25029945 32.87797128 209.62929296 32.87732285 208.00828648 32.87666562 C192.85107337 32.87097898 177.69388457 32.87749397 162.53667545 32.88826635 C149.56515368 32.89720034 136.59366773 32.89564783 123.62214661 32.88642883 C108.51469586 32.87569665 93.40726634 32.87152815 78.29981232 32.87765336 C76.68517049 32.87829038 75.07052867 32.87891912 73.45588684 32.87953949 C72.66170176 32.87984804 71.86751668 32.88015659 71.04926538 32.88047449 C65.4850936 32.88219261 59.92093542 32.87930551 54.35676575 32.87458038 C47.56472878 32.86893866 40.77273797 32.87055655 33.98070621 32.88114187 C30.5233513 32.88635468 27.06607301 32.88853151 23.60871887 32.88184357 C-4.63967429 32.68116902 -4.63967429 32.68116902 -31.62785339 40.14717102 C-32.98330261 40.71951477 -32.98330261 40.71951477 -34.36613464 41.30342102 C-40.90303793 44.31263311 -46.15834835 48.52337096 -51.62785339 53.14717102 C-52.89242371 54.12556946 -52.89242371 54.12556946 -54.18254089 55.12373352 C-69.54204651 67.83335638 -76.39542533 88.55086145 -78.25675964 107.69013977 C-78.88174047 114.83209626 -79.2873056 121.98670549 -79.62785339 129.14717102 C-78.65332214 129.10592102 -77.67879089 129.06467102 -76.67472839 129.02217102 C-49.93533262 129.07581073 -22.85179492 147.14891298 -4.62785339 165.14717102 C-3.93949402 165.7633429 -3.25113464 166.37951477 -2.54191589 167.01435852 C14.77505075 182.91769523 25.51099521 206.48866428 30.37214661 229.14717102 C30.64599182 230.34648254 30.64599182 230.34648254 30.92536926 231.57002258 C32.59255691 239.57192943 32.76975881 247.49636949 32.74714661 255.64717102 C32.74693512 256.35171417 32.74672363 257.05625732 32.74650574 257.78215027 C32.71200899 269.32090204 31.65815948 280.05584984 28.37214661 291.14717102 C27.86361145 293.03242493 27.86361145 293.03242493 27.34480286 294.95576477 C21.52243693 314.53631923 10.27796259 331.397848 -3.62785339 346.14717102 C-4.27882996 346.87420227 -4.92980652 347.60123352 -5.60050964 348.35029602 C-20.90968429 364.75087618 -42.22722951 375.24115469 -63.62785339 381.14717102 C-64.73644714 381.46556946 -65.84504089 381.7839679 -66.98722839 382.11201477 C-100.30655607 390.00534895 -135.55622215 382.47968408 -164.64787292 365.37715149 C-192.65056632 347.98164356 -211.99048399 319.63989322 -220.62785339 288.14717102 C-220.96687683 286.97283508 -221.30590027 285.79849915 -221.65519714 284.58857727 C-229.50945532 251.54278133 -222.18314538 215.74327707 -204.62785339 187.14717102 C-194.12699723 170.99579998 -180.85323378 157.51325891 -164.62785339 147.14717102 C-162.98236511 146.08562805 -162.98236511 146.08562805 -161.30363464 145.00263977 C-146.72292805 136.14583425 -128.83878963 129.01433154 -111.62785339 129.14717102 C-111.64356384 128.28664124 -111.65927429 127.42611145 -111.67546082 126.539505 C-111.7273685 123.26844456 -111.76457313 119.99783736 -111.79264832 116.72651672 C-111.8075011 115.3254037 -111.82778895 113.92433507 -111.85417175 112.52339172 C-112.41953753 81.67215704 -100.12124219 53.9142175 -79.11222839 31.60029602 C-57.7711503 10.52765916 -29.72865083 -0.00461458 0 0 Z M-164.87785339 190.08467102 C-184.50713842 210.27125436 -191.20500136 235.00095727 -190.90910339 262.48701477 C-190.30948102 283.6866638 -181.0505382 303.0044708 -167.62785339 319.14717102 C-166.88535339 320.10107727 -166.14285339 321.05498352 -165.37785339 322.03779602 C-162.41099416 325.58219493 -158.9565085 328.282672 -155.25285339 331.02217102 C-154.55095886 331.54174377 -153.84906433 332.06131653 -153.12590027 332.59663391 C-131.58497986 348.2041416 -106.81487156 354.90020529 -80.25675964 351.02998352 C-55.21412732 346.64765486 -34.4036356 332.88145209 -18.62785339 313.14717102 C-3.31955369 290.83433566 3.1935108 265.00738861 -1.34660339 238.08076477 C-6.36991699 213.80230544 -21.00633367 190.63297346 -41.81925964 176.86592102 C-83.08670068 151.61185418 -129.89800433 156.47245516 -164.87785339 190.08467102 Z M317.71980286 187.58857727 C301.36835747 203.30071802 289.62381417 225.81487813 289.13386536 248.82295227 C288.68343138 275.82045685 294.78326443 297.99402198 312.37214661 319.14717102 C313.11464661 320.10107727 313.85714661 321.05498352 314.62214661 322.03779602 C317.58900584 325.58219493 321.0434915 328.282672 324.74714661 331.02217102 C325.44904114 331.54174377 326.15093567 332.06131653 326.87409973 332.59663391 C348.41502014 348.2041416 373.18512844 354.90020529 399.74324036 351.02998352 C424.78587268 346.64765486 445.5963644 332.88145209 461.37214661 313.14717102 C476.72852435 290.76425881 482.97969231 265.21208217 478.72370911 238.22138977 C473.85635869 213.68761266 458.96269771 191.1509272 438.30964661 177.05732727 C431.58724682 172.8003359 424.78111921 169.0585842 417.37214661 166.14717102 C416.43628723 165.77721008 415.50042786 165.40724915 414.53620911 165.02607727 C380.16488879 152.96518981 343.78959046 163.59208647 317.71980286 187.58857727 Z " fill="#000000" transform="translate(367.6278533935547,319.8528289794922)"/>
</svg>
